<?xml version="1.0" encoding="utf-8"?>
<!-- Generator: Adobe Illustrator 18.0.0, SVG Export Plug-In . SVG Version: 6.00 Build 0)  -->
<!DOCTYPE svg PUBLIC "-//W3C//DTD SVG 1.0//EN" "http://www.w3.org/TR/2001/REC-SVG-20010904/DTD/svg10.dtd">
<svg version="1.0" id="Layer_1" xmlns="http://www.w3.org/2000/svg" xmlns:xlink="http://www.w3.org/1999/xlink" x="0px" y="0px"
	 viewBox="0 0 1271.5 841.9" enable-background="new 0 0 1271.5 841.9" xml:space="preserve">
<rect x="129.1" y="440.3" fill="#010202" width="423.2" height="281.6"/>
<polygon fill="#FFFFFF" points="225.4,583.6 273.2,583.6 273.2,631.3 "/>
<path fill="#FFFFFF" d="M214.1,567.5h-11.3v-42.6H228v9.2h-13.8v8.1h12.8v9.2h-12.8V567.5z"/>
<path fill="#FFFFFF" d="M272.8,546.2c0,7.2-1.8,12.6-5.3,16.3c-3.5,3.7-8.7,5.6-15.4,5.6c-6.7,0-11.8-1.9-15.4-5.6
	c-3.6-3.7-5.3-9.2-5.3-16.4c0-7.1,1.8-12.5,5.3-16.2c3.5-3.7,8.7-5.6,15.5-5.6c6.8,0,11.9,1.9,15.4,5.6
	C271.1,533.5,272.8,539,272.8,546.2z M243.5,546.2c0,8.2,2.9,12.4,8.6,12.4c2.9,0,5.1-1,6.5-3c1.4-2,2.1-5.1,2.1-9.4
	c0-4.3-0.7-7.4-2.1-9.4c-1.4-2-3.6-3-6.4-3C246.4,533.7,243.5,537.8,243.5,546.2z"/>
<path fill="#FFFFFF" d="M289,552v15.5h-11.5v-42.6h14c11.6,0,17.4,4.2,17.4,12.6c0,4.9-2.4,8.8-7.2,11.5l12.4,18.6H301l-9-15.5H289z
	 M289,543.4h2.2c4,0,6-1.8,6-5.3c0-2.9-2-4.4-5.9-4.4H289V543.4z"/>
<path fill="#FFFFFF" d="M359.9,567.5h-13.6l-4.1-18.6c-0.2-0.8-0.5-2.3-0.9-4.6c-0.4-2.3-0.7-4.2-0.9-5.8c-0.2,1.3-0.4,2.8-0.8,4.7
	c-0.3,1.9-0.7,3.6-1,5.2c-0.3,1.6-1.8,7.9-4.2,19.1h-13.6l-10.5-42.6h11.1l4.6,21.4c1,4.7,1.8,8.5,2.2,11.3c0.3-2,0.7-4.7,1.4-8.1
	c0.7-3.4,1.3-6.2,1.8-8.5l3.8-16.1h10.7l3.6,16.1c0.6,2.6,1.3,5.6,1.9,8.9c0.6,3.4,1.1,5.9,1.3,7.6c0.3-2.2,0.9-5.9,2.1-11.2
	l4.7-21.4h11.1L359.9,567.5z"/>
<path fill="#FFFFFF" d="M396.1,567.5l-2.1-8h-13.8l-2.2,8h-12.6l13.9-42.8h15.4l14.1,42.8H396.1z M391.6,550.1l-1.8-7
	c-0.4-1.6-0.9-3.6-1.6-6c-0.6-2.5-1-4.2-1.2-5.3c-0.2,1-0.5,2.6-1,4.9c-0.5,2.3-1.7,6.8-3.4,13.4H391.6z"/>
<path fill="#FFFFFF" d="M424.8,552v15.5h-11.5v-42.6h14c11.6,0,17.4,4.2,17.4,12.6c0,4.9-2.4,8.8-7.2,11.5l12.4,18.6h-13.1l-9-15.5
	H424.8z M424.8,543.4h2.2c4,0,6-1.8,6-5.3c0-2.9-2-4.4-5.9-4.4h-2.3V543.4z"/>
<path fill="#FFFFFF" d="M489.8,545.3c0,7.1-2,12.6-5.9,16.4c-3.9,3.8-9.4,5.8-16.5,5.8h-13.8v-42.6h14.7c6.8,0,12.1,1.7,15.8,5.2
	C487.9,533.7,489.8,538.7,489.8,545.3z M477.9,545.7c0-3.9-0.8-6.8-2.3-8.7c-1.5-1.9-3.9-2.8-7-2.8h-3.4v23.9h2.6c3.5,0,6.1-1,7.7-3
	C477,553,477.9,549.9,477.9,545.7z"/>
<path fill="#FFFFFF" d="M292.6,629.6v-46h12.4v36h17.7v10H292.6z"/>
<path fill="#FFFFFF" d="M334.7,600.6l7.9-17.1h13.5l-15.1,28v18h-12.5V612l-15.1-28.4h13.5L334.7,600.6z"/>
<path fill="#FFFFFF" d="M383.5,629.6h-12.4v-35.9h-11.2v-10.2h34.9v10.2h-11.2V629.6z"/>
<path fill="#FFFFFF" d="M400.3,629.6v-46h12.5v46H400.3z"/>
<path fill="#FFFFFF" d="M439.9,593.1c-3,0-5.3,1.2-6.9,3.6c-1.7,2.4-2.5,5.8-2.5,10c0,8.9,3.4,13.3,10.1,13.3c2,0,4-0.3,5.9-0.8
	s3.8-1.2,5.8-2v10.5c-3.8,1.7-8.2,2.5-13,2.5c-6.9,0-12.3-2-16-6c-3.7-4-5.6-9.9-5.6-17.5c0-4.8,0.9-9,2.7-12.6
	c1.8-3.6,4.4-6.4,7.7-8.3c3.4-1.9,7.3-2.9,11.9-2.9c5,0,9.7,1.1,14.3,3.2l-3.8,9.8c-1.7-0.8-3.4-1.5-5.1-2
	C443.7,593.4,441.9,593.1,439.9,593.1z"/>
<path fill="#FFFFFF" d="M490.3,615.6c0,2.9-0.7,5.4-2.2,7.6c-1.4,2.2-3.5,3.9-6.3,5.2c-2.7,1.2-5.9,1.8-9.6,1.8
	c-3.1,0-5.6-0.2-7.7-0.6c-2.1-0.4-4.2-1.2-6.5-2.3v-11.1c2.4,1.2,4.8,2.2,7.4,2.8c2.6,0.7,4.9,1,7.1,1c1.8,0,3.2-0.3,4.1-1
	c0.9-0.6,1.3-1.5,1.3-2.5c0-0.6-0.2-1.2-0.5-1.7s-0.9-0.9-1.7-1.4c-0.8-0.5-2.8-1.5-6.1-3c-3-1.4-5.3-2.7-6.8-4
	c-1.5-1.3-2.6-2.7-3.3-4.4c-0.7-1.7-1.1-3.6-1.1-5.9c0-4.2,1.5-7.5,4.6-9.9c3.1-2.4,7.3-3.6,12.7-3.6c4.8,0,9.6,1.1,14.6,3.3
	l-3.8,9.6c-4.3-2-8-3-11.1-3c-1.6,0-2.8,0.3-3.5,0.9c-0.7,0.6-1.1,1.3-1.1,2.1c0,0.9,0.5,1.7,1.4,2.4c0.9,0.7,3.5,2,7.6,3.9
	c4,1.8,6.7,3.7,8.3,5.7C489.5,609.9,490.3,612.5,490.3,615.6z"/>
<polygon fill="#FFFFFF" points="203.8,604.4 251.5,604.4 251.5,652.1 "/>
<polygon fill="#010202" points="225.4,233.2 273.2,233.2 273.2,280.9 "/>
<path fill="#010202" d="M214.1,217.1h-11.3v-42.6H228v9.2h-13.8v8.1h12.8v9.2h-12.8V217.1z"/>
<path fill="#010202" d="M272.8,195.8c0,7.2-1.8,12.6-5.3,16.3c-3.5,3.7-8.7,5.6-15.4,5.6c-6.7,0-11.8-1.9-15.4-5.6
	c-3.6-3.7-5.3-9.2-5.3-16.4c0-7.1,1.8-12.5,5.3-16.2c3.5-3.7,8.7-5.6,15.5-5.6c6.8,0,11.9,1.9,15.4,5.6
	C271.1,183.1,272.8,188.6,272.8,195.8z M243.5,195.8c0,8.2,2.9,12.4,8.6,12.4c2.9,0,5.1-1,6.5-3c1.4-2,2.1-5.1,2.1-9.4
	c0-4.3-0.7-7.4-2.1-9.4c-1.4-2-3.6-3-6.4-3C246.4,183.3,243.5,187.4,243.5,195.8z"/>
<path fill="#010202" d="M289,201.6v15.5h-11.5v-42.6h14c11.6,0,17.4,4.2,17.4,12.6c0,4.9-2.4,8.8-7.2,11.5l12.4,18.6H301l-9-15.5
	H289z M289,193h2.2c4,0,6-1.8,6-5.3c0-2.9-2-4.4-5.9-4.4H289V193z"/>
<path fill="#010202" d="M359.9,217.1h-13.6l-4.1-18.6c-0.2-0.8-0.5-2.3-0.9-4.6c-0.4-2.3-0.7-4.2-0.9-5.8c-0.2,1.3-0.4,2.8-0.8,4.7
	c-0.3,1.9-0.7,3.6-1,5.2c-0.3,1.6-1.8,7.9-4.2,19.1h-13.6l-10.5-42.6h11.1l4.6,21.4c1,4.7,1.8,8.5,2.2,11.3c0.3-2,0.7-4.7,1.4-8.1
	c0.7-3.4,1.3-6.2,1.8-8.5l3.8-16.1h10.7l3.6,16.1c0.6,2.6,1.3,5.6,1.9,8.9c0.6,3.4,1.1,5.9,1.3,7.6c0.3-2.2,0.9-5.9,2.1-11.2
	l4.7-21.4h11.1L359.9,217.1z"/>
<path fill="#010202" d="M396.1,217.1l-2.1-8h-13.8l-2.2,8h-12.6l13.9-42.8h15.4l14.1,42.8H396.1z M391.6,199.7l-1.8-7
	c-0.4-1.6-0.9-3.6-1.6-6c-0.6-2.5-1-4.2-1.2-5.3c-0.2,1-0.5,2.6-1,4.9c-0.5,2.3-1.7,6.8-3.4,13.4H391.6z"/>
<path fill="#010202" d="M424.8,201.6v15.5h-11.5v-42.6h14c11.6,0,17.4,4.2,17.4,12.6c0,4.9-2.4,8.8-7.2,11.5l12.4,18.6h-13.1
	l-9-15.5H424.8z M424.8,193h2.2c4,0,6-1.8,6-5.3c0-2.9-2-4.4-5.9-4.4h-2.3V193z"/>
<path fill="#010202" d="M489.8,194.9c0,7.1-2,12.6-5.9,16.4c-3.9,3.8-9.4,5.8-16.5,5.8h-13.8v-42.6h14.7c6.8,0,12.1,1.7,15.8,5.2
	C487.9,183.2,489.8,188.3,489.8,194.9z M477.9,195.3c0-3.9-0.8-6.8-2.3-8.7c-1.5-1.9-3.9-2.8-7-2.8h-3.4v23.9h2.6c3.5,0,6.1-1,7.7-3
	C477,202.6,477.9,199.5,477.9,195.3z"/>
<path fill="#010202" d="M292.6,279.2v-46h12.4v36h17.7v10H292.6z"/>
<path fill="#010202" d="M334.7,250.2l7.9-17.1h13.5l-15.1,28v18h-12.5v-17.6l-15.1-28.4h13.5L334.7,250.2z"/>
<path fill="#010202" d="M383.5,279.2h-12.4v-35.9h-11.2v-10.2h34.9v10.2h-11.2V279.2z"/>
<path fill="#010202" d="M400.3,279.2v-46h12.5v46H400.3z"/>
<path fill="#010202" d="M439.9,242.7c-3,0-5.3,1.2-6.9,3.6c-1.7,2.4-2.5,5.8-2.5,10c0,8.9,3.4,13.3,10.1,13.3c2,0,4-0.3,5.9-0.8
	s3.8-1.2,5.8-2v10.5c-3.8,1.7-8.2,2.5-13,2.5c-6.9,0-12.3-2-16-6c-3.7-4-5.6-9.9-5.6-17.5c0-4.8,0.9-9,2.7-12.6
	c1.8-3.6,4.4-6.4,7.7-8.3c3.4-1.9,7.3-2.9,11.9-2.9c5,0,9.7,1.1,14.3,3.2l-3.8,9.8c-1.7-0.8-3.4-1.5-5.1-2
	C443.7,243,441.9,242.7,439.9,242.7z"/>
<path fill="#010202" d="M490.3,265.2c0,2.9-0.7,5.4-2.2,7.6c-1.4,2.2-3.5,3.9-6.3,5.2c-2.7,1.2-5.9,1.8-9.6,1.8
	c-3.1,0-5.6-0.2-7.7-0.6c-2.1-0.4-4.2-1.2-6.5-2.3v-11.1c2.4,1.2,4.8,2.2,7.4,2.8c2.6,0.7,4.9,1,7.1,1c1.8,0,3.2-0.3,4.1-1
	c0.9-0.6,1.3-1.5,1.3-2.5c0-0.6-0.2-1.2-0.5-1.7s-0.9-0.9-1.7-1.4c-0.8-0.5-2.8-1.5-6.1-3c-3-1.4-5.3-2.7-6.8-4
	c-1.5-1.3-2.6-2.7-3.3-4.4c-0.7-1.7-1.1-3.6-1.1-5.9c0-4.2,1.5-7.5,4.6-9.9c3.1-2.4,7.3-3.6,12.7-3.6c4.8,0,9.6,1.1,14.6,3.3
	l-3.8,9.6c-4.3-2-8-3-11.1-3c-1.6,0-2.8,0.3-3.5,0.9c-0.7,0.6-1.1,1.3-1.1,2.1c0,0.9,0.5,1.7,1.4,2.4c0.9,0.7,3.5,2,7.6,3.9
	c4,1.8,6.7,3.7,8.3,5.7S490.3,262.1,490.3,265.2z"/>
<polygon fill="#010202" points="203.8,254 251.5,254 251.5,301.7 "/>
<rect x="679.7" y="440.3" fill="#65140F" width="423.2" height="281.6"/>
<polygon fill="#EDC212" points="776,583.6 823.8,583.6 823.8,631.3 "/>
<path fill="#FFFFFF" d="M764.8,567.5h-11.3v-42.6h25.2v9.2h-13.8v8.1h12.8v9.2h-12.8V567.5z"/>
<path fill="#FFFFFF" d="M823.5,546.2c0,7.2-1.8,12.6-5.3,16.3c-3.5,3.7-8.7,5.6-15.4,5.6c-6.7,0-11.8-1.9-15.4-5.6
	c-3.6-3.7-5.3-9.2-5.3-16.4c0-7.1,1.8-12.5,5.3-16.2c3.5-3.7,8.7-5.6,15.5-5.6c6.8,0,11.9,1.9,15.4,5.6
	C821.7,533.5,823.5,539,823.5,546.2z M794.1,546.2c0,8.2,2.9,12.4,8.6,12.4c2.9,0,5.1-1,6.5-3c1.4-2,2.1-5.1,2.1-9.4
	c0-4.3-0.7-7.4-2.1-9.4c-1.4-2-3.6-3-6.4-3C797,533.7,794.1,537.8,794.1,546.2z"/>
<path fill="#FFFFFF" d="M839.7,552v15.5h-11.5v-42.6h14c11.6,0,17.4,4.2,17.4,12.6c0,4.9-2.4,8.8-7.2,11.5l12.4,18.6h-13.1l-9-15.5
	H839.7z M839.7,543.4h2.2c4,0,6-1.8,6-5.3c0-2.9-2-4.4-5.9-4.4h-2.3V543.4z"/>
<path fill="#FFFFFF" d="M910.5,567.5h-13.6l-4.1-18.6c-0.2-0.8-0.5-2.3-0.9-4.6c-0.4-2.3-0.7-4.2-0.9-5.8c-0.2,1.3-0.4,2.8-0.8,4.7
	c-0.3,1.9-0.7,3.6-1,5.2c-0.3,1.6-1.8,7.9-4.2,19.1h-13.6l-10.5-42.6h11.1l4.6,21.4c1,4.7,1.8,8.5,2.2,11.3c0.3-2,0.7-4.7,1.4-8.1
	c0.7-3.4,1.3-6.2,1.8-8.5l3.8-16.1h10.7L900,541c0.6,2.6,1.3,5.6,1.9,8.9c0.6,3.4,1.1,5.9,1.3,7.6c0.3-2.2,0.9-5.9,2.1-11.2
	l4.7-21.4H921L910.5,567.5z"/>
<path fill="#FFFFFF" d="M946.7,567.5l-2.1-8h-13.8l-2.2,8h-12.6l13.9-42.8h15.4l14.1,42.8H946.7z M942.2,550.1l-1.8-7
	c-0.4-1.6-0.9-3.6-1.6-6c-0.6-2.5-1-4.2-1.2-5.3c-0.2,1-0.5,2.6-1,4.9c-0.5,2.3-1.7,6.8-3.4,13.4H942.2z"/>
<path fill="#FFFFFF" d="M975.4,552v15.5h-11.5v-42.6h14c11.6,0,17.4,4.2,17.4,12.6c0,4.9-2.4,8.8-7.2,11.5l12.4,18.6h-13.1l-9-15.5
	H975.4z M975.4,543.4h2.2c4,0,6-1.8,6-5.3c0-2.9-2-4.4-5.9-4.4h-2.3V543.4z"/>
<path fill="#FFFFFF" d="M1040.4,545.3c0,7.1-2,12.6-5.9,16.4c-3.9,3.8-9.4,5.8-16.5,5.8h-13.8v-42.6h14.7c6.8,0,12.1,1.7,15.8,5.2
	C1038.6,533.7,1040.4,538.7,1040.4,545.3z M1028.5,545.7c0-3.9-0.8-6.8-2.3-8.7c-1.5-1.9-3.9-2.8-7-2.8h-3.4v23.9h2.6
	c3.5,0,6.1-1,7.7-3C1027.7,553,1028.5,549.9,1028.5,545.7z"/>
<path fill="#FFFFFF" d="M843.2,629.6v-46h12.4v36h17.7v10H843.2z"/>
<path fill="#FFFFFF" d="M885.3,600.6l7.9-17.1h13.5l-15.1,28v18H879V612l-15.1-28.4h13.5L885.3,600.6z"/>
<path fill="#FFFFFF" d="M934.2,629.6h-12.4v-35.9h-11.2v-10.2h34.9v10.2h-11.2V629.6z"/>
<path fill="#FFFFFF" d="M950.9,629.6v-46h12.5v46H950.9z"/>
<path fill="#FFFFFF" d="M990.6,593.1c-3,0-5.3,1.2-6.9,3.6c-1.7,2.4-2.5,5.8-2.5,10c0,8.9,3.4,13.3,10.1,13.3c2,0,4-0.3,5.9-0.8
	s3.8-1.2,5.8-2v10.5c-3.8,1.7-8.2,2.5-13,2.5c-6.9,0-12.3-2-16-6c-3.7-4-5.6-9.9-5.6-17.5c0-4.8,0.9-9,2.7-12.6
	c1.8-3.6,4.4-6.4,7.7-8.3c3.4-1.9,7.3-2.9,11.9-2.9c5,0,9.7,1.1,14.3,3.2l-3.8,9.8c-1.7-0.8-3.4-1.5-5.1-2
	C994.3,593.4,992.5,593.1,990.6,593.1z"/>
<path fill="#FFFFFF" d="M1040.9,615.6c0,2.9-0.7,5.4-2.2,7.6c-1.4,2.2-3.5,3.9-6.3,5.2c-2.7,1.2-5.9,1.8-9.6,1.8
	c-3.1,0-5.6-0.2-7.7-0.6c-2.1-0.4-4.2-1.2-6.5-2.3v-11.1c2.4,1.2,4.8,2.2,7.4,2.8c2.6,0.7,4.9,1,7.1,1c1.8,0,3.2-0.3,4.1-1
	c0.9-0.6,1.3-1.5,1.3-2.5c0-0.6-0.2-1.2-0.5-1.7s-0.9-0.9-1.7-1.4c-0.8-0.5-2.8-1.5-6.1-3c-3-1.4-5.3-2.7-6.8-4
	c-1.5-1.3-2.6-2.7-3.3-4.4c-0.7-1.7-1.1-3.6-1.1-5.9c0-4.2,1.5-7.5,4.6-9.9c3.1-2.4,7.3-3.6,12.7-3.6c4.8,0,9.6,1.1,14.6,3.3
	l-3.8,9.6c-4.3-2-8-3-11.1-3c-1.6,0-2.8,0.3-3.5,0.9c-0.7,0.6-1.1,1.3-1.1,2.1c0,0.9,0.5,1.7,1.4,2.4c0.9,0.7,3.5,2,7.6,3.9
	c4,1.8,6.7,3.7,8.3,5.7C1040.2,609.9,1040.9,612.5,1040.9,615.6z"/>
<polygon fill="#EDC212" points="754.4,604.4 802.1,604.4 802.1,652.1 "/>
<polygon fill="#EDC212" points="776,233.2 823.8,233.2 823.8,280.9 "/>
<path fill="#010202" d="M764.8,217.1h-11.3v-42.6h25.2v9.2h-13.8v8.1h12.8v9.2h-12.8V217.1z"/>
<path fill="#010202" d="M823.5,195.8c0,7.2-1.8,12.6-5.3,16.3c-3.5,3.7-8.7,5.6-15.4,5.6c-6.7,0-11.8-1.9-15.4-5.6
	c-3.6-3.7-5.3-9.2-5.3-16.4c0-7.1,1.8-12.5,5.3-16.2c3.5-3.7,8.7-5.6,15.5-5.6c6.8,0,11.9,1.9,15.4,5.6
	C821.7,183.1,823.5,188.6,823.5,195.8z M794.1,195.8c0,8.2,2.9,12.4,8.6,12.4c2.9,0,5.1-1,6.5-3c1.4-2,2.1-5.1,2.1-9.4
	c0-4.3-0.7-7.4-2.1-9.4c-1.4-2-3.6-3-6.4-3C797,183.3,794.1,187.4,794.1,195.8z"/>
<path fill="#010202" d="M839.7,201.6v15.5h-11.5v-42.6h14c11.6,0,17.4,4.2,17.4,12.6c0,4.9-2.4,8.8-7.2,11.5l12.4,18.6h-13.1
	l-9-15.5H839.7z M839.7,193h2.2c4,0,6-1.8,6-5.3c0-2.9-2-4.4-5.9-4.4h-2.3V193z"/>
<path fill="#010202" d="M910.5,217.1h-13.6l-4.1-18.6c-0.2-0.8-0.5-2.3-0.9-4.6c-0.4-2.3-0.7-4.2-0.9-5.8c-0.2,1.3-0.4,2.8-0.8,4.7
	c-0.3,1.9-0.7,3.6-1,5.2c-0.3,1.6-1.8,7.9-4.2,19.1h-13.6l-10.5-42.6h11.1l4.6,21.4c1,4.7,1.8,8.5,2.2,11.3c0.3-2,0.7-4.7,1.4-8.1
	c0.7-3.4,1.3-6.2,1.8-8.5l3.8-16.1h10.7l3.6,16.1c0.6,2.6,1.3,5.6,1.9,8.9c0.6,3.4,1.1,5.9,1.3,7.6c0.3-2.2,0.9-5.9,2.1-11.2
	l4.7-21.4H921L910.5,217.1z"/>
<path fill="#010202" d="M946.7,217.1l-2.1-8h-13.8l-2.2,8h-12.6l13.9-42.8h15.4l14.1,42.8H946.7z M942.2,199.7l-1.8-7
	c-0.4-1.6-0.9-3.6-1.6-6c-0.6-2.5-1-4.2-1.2-5.3c-0.2,1-0.5,2.6-1,4.9c-0.5,2.3-1.7,6.8-3.4,13.4H942.2z"/>
<path fill="#010202" d="M975.4,201.6v15.5h-11.5v-42.6h14c11.6,0,17.4,4.2,17.4,12.6c0,4.9-2.4,8.8-7.2,11.5l12.4,18.6h-13.1
	l-9-15.5H975.4z M975.4,193h2.2c4,0,6-1.8,6-5.3c0-2.9-2-4.4-5.9-4.4h-2.3V193z"/>
<path fill="#010202" d="M1040.4,194.9c0,7.1-2,12.6-5.9,16.4c-3.9,3.8-9.4,5.8-16.5,5.8h-13.8v-42.6h14.7c6.8,0,12.1,1.7,15.8,5.2
	C1038.6,183.2,1040.4,188.3,1040.4,194.9z M1028.5,195.3c0-3.9-0.8-6.8-2.3-8.7c-1.5-1.9-3.9-2.8-7-2.8h-3.4v23.9h2.6
	c3.5,0,6.1-1,7.7-3C1027.7,202.6,1028.5,199.5,1028.5,195.3z"/>
<path fill="#010202" d="M843.2,279.2v-46h12.4v36h17.7v10H843.2z"/>
<path fill="#010202" d="M885.3,250.2l7.9-17.1h13.5l-15.1,28v18H879v-17.6l-15.1-28.4h13.5L885.3,250.2z"/>
<path fill="#010202" d="M934.2,279.2h-12.4v-35.9h-11.2v-10.2h34.9v10.2h-11.2V279.2z"/>
<path fill="#010202" d="M950.9,279.2v-46h12.5v46H950.9z"/>
<path fill="#010202" d="M990.6,242.7c-3,0-5.3,1.2-6.9,3.6c-1.7,2.4-2.5,5.8-2.5,10c0,8.9,3.4,13.3,10.1,13.3c2,0,4-0.3,5.9-0.8
	s3.8-1.2,5.8-2v10.5c-3.8,1.7-8.2,2.5-13,2.5c-6.9,0-12.3-2-16-6c-3.7-4-5.6-9.9-5.6-17.5c0-4.8,0.9-9,2.7-12.6
	c1.8-3.6,4.4-6.4,7.7-8.3c3.4-1.9,7.3-2.9,11.9-2.9c5,0,9.7,1.1,14.3,3.2l-3.8,9.8c-1.7-0.8-3.4-1.5-5.1-2
	C994.3,243,992.5,242.7,990.6,242.7z"/>
<path fill="#010202" d="M1040.9,265.2c0,2.9-0.7,5.4-2.2,7.6c-1.4,2.2-3.5,3.9-6.3,5.2c-2.7,1.2-5.9,1.8-9.6,1.8
	c-3.1,0-5.6-0.2-7.7-0.6c-2.1-0.4-4.2-1.2-6.5-2.3v-11.1c2.4,1.2,4.8,2.2,7.4,2.8c2.6,0.7,4.9,1,7.1,1c1.8,0,3.2-0.3,4.1-1
	c0.9-0.6,1.3-1.5,1.3-2.5c0-0.6-0.2-1.2-0.5-1.7s-0.9-0.9-1.7-1.4c-0.8-0.5-2.8-1.5-6.1-3c-3-1.4-5.3-2.7-6.8-4
	c-1.5-1.3-2.6-2.7-3.3-4.4c-0.7-1.7-1.1-3.6-1.1-5.9c0-4.2,1.5-7.5,4.6-9.9c3.1-2.4,7.3-3.6,12.7-3.6c4.8,0,9.6,1.1,14.6,3.3
	l-3.8,9.6c-4.3-2-8-3-11.1-3c-1.6,0-2.8,0.3-3.5,0.9c-0.7,0.6-1.1,1.3-1.1,2.1c0,0.9,0.5,1.7,1.4,2.4c0.9,0.7,3.5,2,7.6,3.9
	c4,1.8,6.7,3.7,8.3,5.7C1040.2,259.5,1040.9,262.1,1040.9,265.2z"/>
<polygon fill="#EDC212" points="754.4,254 802.1,254 802.1,301.7 "/>
</svg>
