<svg width="350.00000000000006" height="200" xmlns="http://www.w3.org/2000/svg">
 <!-- Created with Method Draw - http://github.com/duopixel/Method-Draw/ -->
 <g>
  <title>Layer 1</title>
  <rect id="svg_32" height="281.6" width="423.2" fill="#65140F" y="-41.366713" x="-44.633395"/>
  <polygon id="svg_33" points="51.666600704193115,100.59994268417358 99.4665846824646,100.59994268417358 99.4665846824646,148.29995489120483 " fill="#EDC212"/>
  <path id="svg_34" d="m40.466605,84.499953l-11.3,0l0,-42.6l25.2,0l0,9.2l-13.8,0l0,8.1l12.8,0l0,9.2l-12.8,0l0,16.1l-0.1,0z" fill="#FFFFFF"/>
  <path id="svg_35" d="m99.166605,63.199953c0,7.2 -1.8,12.6 -5.3,16.3c-3.5,3.7 -8.7,5.6 -15.4,5.6c-6.7,0 -11.8,-1.9 -15.4,-5.6c-3.6,-3.7 -5.3,-9.2 -5.3,-16.4c0,-7.1 1.8,-12.5 5.3,-16.2c3.5,-3.7 8.7,-5.6 15.5,-5.6c6.8,0 11.9,1.9 15.4,5.6c3.4,3.6 5.2,9.1 5.2,16.3zm-29.4,0c0,8.2 2.9,12.4 8.6,12.4c2.9,0 5.1,-1 6.5,-3c1.4,-2 2.1,-5.1 2.1,-9.4c0,-4.3 -0.7,-7.4 -2.1,-9.4c-1.4,-2 -3.6,-3 -6.4,-3c-5.8,-0.1 -8.7,4 -8.7,12.4z" fill="#FFFFFF"/>
  <path id="svg_36" d="m115.366605,68.999953l0,15.5l-11.5,0l0,-42.6l14,0c11.6,0 17.4,4.2 17.4,12.6c0,4.9 -2.4,8.8 -7.2,11.5l12.4,18.6l-13.1,0l-9,-15.5l-3,0l0,-0.1zm0,-8.6l2.2,0c4,0 6,-1.8 6,-5.3c0,-2.9 -2,-4.4 -5.9,-4.4l-2.3,0l0,9.7z" fill="#FFFFFF"/>
  <path id="svg_37" d="m186.166605,84.499953l-13.6,0l-4.1,-18.6c-0.2,-0.8 -0.5,-2.3 -0.9,-4.6c-0.4,-2.3 -0.7,-4.2 -0.9,-5.8c-0.2,1.3 -0.4,2.8 -0.8,4.7c-0.3,1.9 -0.7,3.6 -1,5.2c-0.3,1.6 -1.8,7.9 -4.2,19.1l-13.6,0l-10.5,-42.6l11.1,0l4.6,21.4c1,4.7 1.8,8.5 2.2,11.3c0.3,-2 0.7,-4.7 1.4,-8.1c0.7,-3.4 1.3,-6.2 1.8,-8.5l3.8,-16.1l10.7,0l3.5,16.1c0.6,2.6 1.3,5.6 1.9,8.9c0.6,3.4 1.1,5.9 1.3,7.6c0.3,-2.2 0.9,-5.9 2.1,-11.2l4.7,-21.4l11,0l-10.5,42.6z" fill="#FFFFFF"/>
  <path id="svg_38" d="m222.366605,84.499953l-2.1,-8l-13.8,0l-2.2,8l-12.6,0l13.9,-42.8l15.4,0l14.1,42.8l-12.7,0zm-4.5,-17.4l-1.8,-7c-0.4,-1.6 -0.9,-3.6 -1.6,-6c-0.6,-2.5 -1,-4.2 -1.2,-5.3c-0.2,1 -0.5,2.6 -1,4.9c-0.5,2.3 -1.7,6.8 -3.4,13.4l9,0z" fill="#FFFFFF"/>
  <path id="svg_39" d="m251.066605,68.999953l0,15.5l-11.5,0l0,-42.6l14,0c11.6,0 17.4,4.2 17.4,12.6c0,4.9 -2.4,8.8 -7.2,11.5l12.4,18.6l-13.1,0l-9,-15.5l-3,0l0,-0.1zm0,-8.6l2.2,0c4,0 6,-1.8 6,-5.3c0,-2.9 -2,-4.4 -5.9,-4.4l-2.3,0l0,9.7z" fill="#FFFFFF"/>
  <path id="svg_40" d="m316.066605,62.299953c0,7.1 -2,12.6 -5.9,16.4c-3.9,3.8 -9.4,5.8 -16.5,5.8l-13.8,0l0,-42.6l14.7,0c6.8,0 12.1,1.7 15.8,5.2c3.9,3.6 5.7,8.6 5.7,15.2zm-11.9,0.4c0,-3.9 -0.8,-6.8 -2.3,-8.7c-1.5,-1.9 -3.9,-2.8 -7,-2.8l-3.4,0l0,23.9l2.6,0c3.5,0 6.1,-1 7.7,-3c1.6,-2.1 2.4,-5.2 2.4,-9.4z" fill="#FFFFFF"/>
  <path id="svg_41" d="m118.866605,146.599953l0,-46l12.4,0l0,36l17.7,0l0,10l-30.1,0z" fill="#FFFFFF"/>
  <path id="svg_42" d="m160.966605,117.599953l7.9,-17.1l13.5,0l-15.1,28l0,18l-12.6,0l0,-17.5l-15.1,-28.4l13.5,0l7.9,17z" fill="#FFFFFF"/>
  <path id="svg_43" d="m209.866605,146.599953l-12.4,0l0,-35.9l-11.2,0l0,-10.2l34.9,0l0,10.2l-11.2,0l0,35.9l-0.1,0z" fill="#FFFFFF"/>
  <path id="svg_44" d="m226.566605,146.599953l0,-46l12.5,0l0,46l-12.5,0z" fill="#FFFFFF"/>
  <path id="svg_45" d="m266.266605,110.099953c-3,0 -5.3,1.2 -6.9,3.6c-1.7,2.4 -2.5,5.8 -2.5,10c0,8.9 3.4,13.3 10.1,13.3c2,0 4,-0.3 5.9,-0.8s3.8,-1.2 5.8,-2l0,10.5c-3.8,1.7 -8.2,2.5 -13,2.5c-6.9,0 -12.3,-2 -16,-6c-3.7,-4 -5.6,-9.9 -5.6,-17.5c0,-4.8 0.9,-9 2.7,-12.6c1.8,-3.6 4.4,-6.4 7.7,-8.3c3.4,-1.9 7.3,-2.9 11.9,-2.9c5,0 9.7,1.1 14.3,3.2l-3.8,9.8c-1.7,-0.8 -3.4,-1.5 -5.1,-2c-1.8,-0.5 -3.6,-0.8 -5.5,-0.8z" fill="#FFFFFF"/>
  <path id="svg_46" d="m316.566605,132.599953c0,2.9 -0.7,5.4 -2.2,7.6c-1.4,2.2 -3.5,3.9 -6.3,5.2c-2.7,1.2 -5.9,1.8 -9.6,1.8c-3.1,0 -5.6,-0.2 -7.7,-0.6c-2.1,-0.4 -4.2,-1.2 -6.5,-2.3l0,-11.1c2.4,1.2 4.8,2.2 7.4,2.8c2.6,0.7 4.9,1 7.1,1c1.8,0 3.2,-0.3 4.1,-1c0.9,-0.6 1.3,-1.5 1.3,-2.5c0,-0.6 -0.2,-1.2 -0.5,-1.7s-0.9,-0.9 -1.7,-1.4c-0.8,-0.5 -2.8,-1.5 -6.1,-3c-3,-1.4 -5.3,-2.7 -6.8,-4c-1.5,-1.3 -2.6,-2.7 -3.3,-4.4c-0.7,-1.7 -1.1,-3.6 -1.1,-5.9c0,-4.2 1.5,-7.5 4.6,-9.9c3.1,-2.4 7.3,-3.6 12.7,-3.6c4.8,0 9.6,1.1 14.6,3.3l-3.8,9.6c-4.3,-2 -8,-3 -11.1,-3c-1.6,0 -2.8,0.3 -3.5,0.9c-0.7,0.6 -1.1,1.3 -1.1,2.1c0,0.9 0.5,1.7 1.4,2.4c0.9,0.7 3.5,2 7.6,3.9c4,1.8 6.7,3.7 8.3,5.7c1.5,2.4 2.2,5 2.2,8.1z" fill="#FFFFFF"/>
  <polygon id="svg_47" points="30.066625118255615,121.39999151229858 77.76657247543335,121.39999151229858 77.76657247543335,169.09994268417358 " fill="#EDC212"/>
 </g>
</svg>